# xmcd
#
# Track frame offsets:
#	150
#	9334
#	20956
#	31453
#	51084
#	66708
#	79425
#	94181
#	105522
#	119632
#	129355
#	145475
#	158524
#	173953
#	190110
#	207343
#	219013
#	230431
#	249575
#	261462
#
# Disc length: 3667 seconds
#
# Revision: 1
# Processed by: cddbd v1.5.2PL0 Copyright (c) Steve Scherf et al.
# Submitted via: audiograbber 1.83.01
#
DISCID=250e5114
DTITLE=Divers - Country Top 40 CD 2
DYEAR=1900
DGENRE=Country
TTITLE0=Frankie Laine feat. Jimmy Carroll and His Orchestra - Rawhide
TTITLE1=Johnny Cash - A Thing Called Love
TTITLE2=Jim Reeves - He'll Have To Go
TTITLE3=Kenny Rogers - Coward Of The County
TTITLE4=Kris Kristofferson - Why Me
TTITLE5=Loggins and Messina - Your Mama Don't Dance
TTITLE6=Dan Fogelberg - Longer
TTITLE7=Don Gibson - Oh Lonesome Me
TTITLE8=Helen Reddy - Delta Dawn
TTITLE9=Waylon Jennings - Theme From The Dukes Of Hazzard ( Good Ol' Boys )
TTITLE10=Billie Jo Spears - Blanket On The Ground
TTITLE11=Hank Williams - Jambalaya ( On The Bayou )
TTITLE12=Billy Ray Cyrus - Achy Breaky Heart
TTITLE13=Alabama - Feels So Right
TTITLE14=Clint Black - Desperado
TTITLE15=Freddy Fender - Before The Next Teardrop Falls
TTITLE16=Hank Locklin - Send Me The Pillow You Dream On
TTITLE17=Bobbie Gentry - Ode To Billie Joe
TTITLE18=Johnny Paycheck - Take This Job And Shove It
TTITLE19=The Highwaymen - The Highwaymen
EXTD=
EXTT0=
EXTT1=
EXTT2=
EXTT3=
EXTT4=
EXTT5=
EXTT6=
EXTT7=
EXTT8=
EXTT9=
EXTT10=
EXTT11=
EXTT12=
EXTT13=
EXTT14=
EXTT15=
EXTT16=
EXTT17=
EXTT18=
EXTT19=
PLAYORDER=
